<svg width="180" height="112" viewBox="0 0 180 112" fill="none" xmlns="http://www.w3.org/2000/svg">
<rect x="59" width="72" height="72" rx="36" fill="#EDCD46"/>
<path d="M106.365 26.503C105.708 25.846 104.928 25.3248 104.07 24.9693C103.212 24.6137 102.292 24.4307 101.363 24.4307C100.434 24.4307 99.5146 24.6137 98.6564 24.9693C97.7983 25.3248 97.0186 25.846 96.3619 26.503L94.999 27.8659L93.6362 26.503C92.3097 25.1766 90.5106 24.4314 88.6347 24.4314C86.7588 24.4314 84.9598 25.1766 83.6333 26.503C82.3069 27.8295 81.5617 29.6285 81.5617 31.5044C81.5617 33.3803 82.3069 35.1794 83.6333 36.5059L84.9962 37.8687L94.999 47.8716L105.002 37.8687L106.365 36.5059C107.022 35.8492 107.543 35.0695 107.898 34.2113C108.254 33.3532 108.437 32.4334 108.437 31.5044C108.437 30.5755 108.254 29.6557 107.898 28.7976C107.543 27.9394 107.022 27.1597 106.365 26.503Z" stroke="white" stroke-width="2.57143" stroke-linecap="round" stroke-linejoin="round"/>
<rect x="121" y="56" width="56" height="56" rx="28" fill="#EDCD46"/>
<path d="M141.001 86.9999C141.001 86.9999 142.001 85.9999 145.001 85.9999C148.001 85.9999 150.001 87.9999 153.001 87.9999C156.001 87.9999 157.001 86.9999 157.001 86.9999V74.9995C157.001 74.9995 156.001 75.9996 153.001 75.9996C150.001 75.9996 148.001 73.9995 145.001 73.9995C142.001 73.9995 141.001 74.9995 141.001 74.9995V86.9999Z" stroke="white" stroke-width="2.00006" stroke-linecap="round" stroke-linejoin="round"/>
<path d="M141.001 94.0036V87.0034" stroke="white" stroke-width="2.00006" stroke-linecap="round" stroke-linejoin="round"/>
<rect x="3" y="48" width="64" height="64" rx="32" fill="#EDCD46"/>
<path d="M42.8749 90.1248L34.9999 84.4999L27.125 90.1248V72.125C27.125 71.5282 27.3621 70.956 27.784 70.534C28.206 70.1121 28.7782 69.875 29.375 69.875H40.6249C41.2216 69.875 41.7939 70.1121 42.2159 70.534C42.6378 70.956 42.8749 71.5282 42.8749 72.125V90.1248Z" stroke="white" stroke-width="2.24998" stroke-linecap="round" stroke-linejoin="round"/>
</svg>
