<svg width="180" height="112" viewBox="0 0 180 112" fill="none" xmlns="http://www.w3.org/2000/svg">
<rect x="10" y="40" width="72" height="72" rx="36" fill="#32BBAA"/>
<path d="M57.3647 66.503C56.708 65.846 55.9284 65.3248 55.0702 64.9693C54.212 64.6137 53.2922 64.4307 52.3633 64.4307C51.4344 64.4307 50.5146 64.6137 49.6564 64.9693C48.7983 65.3248 48.0186 65.846 47.3619 66.503L45.999 67.8659L44.6362 66.503C43.3097 65.1766 41.5106 64.4314 39.6347 64.4314C37.7588 64.4314 35.9598 65.1766 34.6333 66.503C33.3068 67.8295 32.5616 69.6285 32.5616 71.5044C32.5616 73.3803 33.3068 75.1794 34.6333 76.5059L35.9962 77.8687L45.999 87.8716L56.0019 77.8687L57.3647 76.5059C58.0217 75.8492 58.5429 75.0695 58.8985 74.2113C59.2541 73.3532 59.4371 72.4334 59.4371 71.5044C59.4371 70.5755 59.2541 69.6557 58.8985 68.7976C58.5429 67.9394 58.0217 67.1597 57.3647 66.503Z" stroke="white" stroke-width="2.57143" stroke-linecap="round" stroke-linejoin="round"/>
<rect x="66" width="56" height="56" rx="28" fill="#32BBAA"/>
<path d="M94.002 31C97.8679 31 101.002 27.866 101.002 24C101.002 20.134 97.8679 17 94.002 17C90.136 17 87.002 20.134 87.002 24C87.002 27.866 90.136 31 94.002 31Z" stroke="white" stroke-width="2" stroke-linecap="round" stroke-linejoin="round"/>
<path d="M90.21 29.8889L89 38.9989L94 35.9989L99 38.9989L97.79 29.8789" stroke="white" stroke-width="2" stroke-linecap="round" stroke-linejoin="round"/>
<rect x="106" y="45" width="64" height="64" rx="32" fill="#32BBAA"/>
<path d="M132.285 75.8565L136.857 65.5708C137.766 65.5708 138.638 65.932 139.281 66.575C139.924 67.218 140.285 68.0901 140.285 68.9994V73.5708H146.754C147.085 73.567 147.413 73.6354 147.716 73.771C148.018 73.9067 148.287 74.1065 148.504 74.3565C148.722 74.6066 148.882 74.9009 148.975 75.2191C149.067 75.5373 149.089 75.8718 149.039 76.1994L147.462 86.4851C147.38 87.0301 147.103 87.5269 146.683 87.884C146.263 88.241 145.728 88.4342 145.177 88.4279H132.285M132.285 75.8565V88.4279M132.285 75.8565H128.857C128.25 75.8565 127.669 76.0973 127.24 76.526C126.812 76.9546 126.571 77.536 126.571 78.1422V86.1422C126.571 86.7484 126.812 87.3298 127.24 87.7585C127.669 88.1871 128.25 88.4279 128.857 88.4279H132.285" stroke="white" stroke-width="2.28571" stroke-linecap="round" stroke-linejoin="round"/>
</svg>
