<svg width="180" height="112" viewBox="0 0 180 112" fill="none" xmlns="http://www.w3.org/2000/svg">
<rect x="47" y="40" width="72" height="72" rx="36" fill="#F06672"/>
<g clip-path="url(#clip0_695_3958)">
<path fill-rule="evenodd" clip-rule="evenodd" d="M83 64.4291C79.2721 64.4291 76.25 67.4513 76.25 71.1793V83.7154L76.251 86.6088C76.251 87.1413 76.6827 87.5731 77.2152 87.5731H88.7867C89.3192 87.5731 89.751 87.1413 89.751 86.6088V81.7872C89.751 79.6569 88.0241 77.93 85.8938 77.93H82.0367V77.8326C79.8359 77.3858 78.1795 75.4401 78.1795 73.1075V71.1788C78.1795 68.516 80.3382 66.3573 83.001 66.3573C85.3339 66.3573 87.2798 68.0142 87.7261 70.2155H87.8233V71.1798C87.8233 71.7123 88.255 72.1441 88.7876 72.1441C89.3202 72.1441 89.7519 71.7123 89.7519 71.1798C89.7519 71.1628 89.7515 71.146 89.7506 71.1294L89.7497 71.1111L89.7495 71.0928C89.7033 67.4048 86.6991 64.4291 83 64.4291ZM86.0594 72.1441H85.8938V71.1788C85.8938 69.5811 84.5986 68.2859 83.001 68.2859C81.4033 68.2859 80.1081 69.5811 80.1081 71.1788V73.1075C80.1081 74.7052 81.4033 76.0004 83.001 76.0004H83.9652L85.8938 76.0013C89.0892 76.0013 91.6795 78.5918 91.6795 81.7872V86.6088C91.6795 88.2065 90.3843 89.5017 88.7867 89.5017H77.2152C75.6176 89.5017 74.3224 88.2065 74.3224 86.6088V85.644L74.3214 71.1793C74.3214 66.3861 78.207 62.5005 83 62.5005C87.7504 62.5005 91.6092 66.3171 91.6777 71.0516C91.6795 71.0941 91.6805 71.1369 91.6805 71.1798C91.6805 72.7775 90.3853 74.0727 88.7876 74.0727C87.528 74.0727 86.4565 73.2677 86.0594 72.1441Z" fill="white"/>
</g>
<rect x="110" width="64" height="64" rx="32" fill="#F06672"/>
<path d="M151.817 33.6108L143.622 41.8051C143.41 42.0176 143.158 42.1862 142.88 42.3012C142.603 42.4163 142.306 42.4755 142.005 42.4755C141.705 42.4755 141.407 42.4163 141.13 42.3012C140.852 42.1862 140.6 42.0176 140.388 41.8051L130.571 31.9994V20.5708H141.999L151.817 30.3879C152.242 30.8162 152.481 31.3955 152.481 31.9994C152.481 32.6032 152.242 33.1825 151.817 33.6108Z" stroke="white" stroke-width="2.28571" stroke-linecap="round" stroke-linejoin="round"/>
<path d="M136.286 26.2856H136.297" stroke="white" stroke-width="2.28571" stroke-linecap="round" stroke-linejoin="round"/>
<rect x="5" width="56" height="56" rx="28" fill="#F06672"/>
<path d="M40.002 26.9961H26.002C24.8974 26.9961 24.002 27.8915 24.002 28.9961V35.9961C24.002 37.1007 24.8974 37.9961 26.002 37.9961H40.002C41.1065 37.9961 42.002 37.1007 42.002 35.9961V28.9961C42.002 27.8915 41.1065 26.9961 40.002 26.9961Z" stroke="white" stroke-width="2" stroke-linecap="round" stroke-linejoin="round"/>
<path d="M28 26.9961V22.9961C28 21.67 28.5268 20.3982 29.4645 19.4606C30.4021 18.5229 31.6739 17.9961 33 17.9961C34.3261 17.9961 35.5979 18.5229 36.5355 19.4606C37.4732 20.3982 38 21.67 38 22.9961V26.9961" stroke="white" stroke-width="2" stroke-linecap="round" stroke-linejoin="round"/>
<defs>
<clipPath id="clip0_695_3958">
<rect width="30.8571" height="30.858" fill="white" transform="translate(67.5714 60.5708)"/>
</clipPath>
</defs>
</svg>
