<svg width="32" height="33" viewBox="0 0 32 33" fill="none" xmlns="http://www.w3.org/2000/svg">
<rect y="0.5" width="32" height="32" rx="16" fill="#45C3D5"/>
<path d="M8.00048 21.8332C8.00073 22.3319 8.14082 22.8205 8.40484 23.2436C8.66886 23.6667 9.04622 24.0073 9.49407 24.2267C9.94193 24.446 10.4423 24.5354 10.9384 24.4847C11.4346 24.434 11.9065 24.2451 12.3007 23.9396C12.6949 23.6342 12.9955 23.2243 13.1684 22.7565C13.3413 22.2887 13.3796 21.7818 13.2789 21.2934C13.1782 20.805 12.9426 20.3546 12.5987 19.9934C12.2549 19.6321 11.8167 19.3746 11.3338 19.2499V18.4999C11.3338 18.1463 11.4743 17.8071 11.7243 17.5571C11.9744 17.307 12.3135 17.1665 12.6671 17.1665H19.3338C19.6874 17.1665 20.0266 17.307 20.2766 17.5571C20.5267 17.8071 20.6671 18.1463 20.6671 18.4999V19.2499C20.0387 19.4121 19.491 19.798 19.1267 20.3352C18.7625 20.8724 18.6066 21.524 18.6884 22.1679C18.7702 22.8118 19.084 23.4037 19.571 23.8328C20.058 24.2618 20.6848 24.4985 21.3338 24.4985C21.9829 24.4985 22.6096 24.2618 23.0966 23.8328C23.5836 23.4037 23.8974 22.8118 23.9792 22.1679C24.061 21.524 23.9052 20.8724 23.5409 20.3352C23.1766 19.798 22.6289 19.4121 22.0005 19.2499V18.4999C22.0005 17.7926 21.7195 17.1144 21.2194 16.6143C20.7193 16.1142 20.0411 15.8332 19.3338 15.8332L16.6671 15.8332V13.7499C17.2956 13.5876 17.8433 13.2017 18.2076 12.6645C18.5718 12.1274 18.7277 11.4758 18.6459 10.8319C18.5641 10.188 18.2503 9.59606 17.7633 9.167C17.2763 8.73794 16.6495 8.50122 16.0005 8.50122C15.3514 8.50122 14.7247 8.73794 14.2377 9.167C13.7507 9.59606 13.4369 10.188 13.3551 10.8319C13.2733 11.4758 13.4291 12.1274 13.7934 12.6645C14.1577 13.2017 14.7054 13.5876 15.3338 13.7499V15.8332H12.6671C11.9599 15.8332 11.2816 16.1142 10.7815 16.6143C10.2814 17.1144 10.0005 17.7926 10.0005 18.4999V19.2499C9.42827 19.3985 8.92152 19.7327 8.5596 20.2002C8.19768 20.6677 8.00104 21.242 8.00048 21.8332ZM22.6671 21.8332C22.6671 22.0969 22.5889 22.3547 22.4424 22.574C22.2959 22.7932 22.0877 22.9641 21.8441 23.0651C21.6004 23.166 21.3323 23.1924 21.0737 23.1409C20.8151 23.0895 20.5775 22.9625 20.391 22.776C20.2045 22.5896 20.0775 22.352 20.0261 22.0933C19.9747 21.8347 20.0011 21.5666 20.102 21.323C20.2029 21.0793 20.3738 20.8711 20.5931 20.7246C20.8123 20.5781 21.0701 20.4999 21.3338 20.4999C21.6874 20.4999 22.0266 20.6404 22.2766 20.8904C22.5267 21.1405 22.6671 21.4796 22.6671 21.8332ZM14.6671 11.1665C14.6671 10.9028 14.7453 10.645 14.8919 10.4258C15.0384 10.2065 15.2466 10.0356 15.4902 9.9347C15.7339 9.83379 16.002 9.80738 16.2606 9.85883C16.5192 9.91028 16.7568 10.0373 16.9433 10.2237C17.1298 10.4102 17.2567 10.6478 17.3082 10.9064C17.3596 11.1651 17.3332 11.4332 17.2323 11.6768C17.1314 11.9204 16.9605 12.1287 16.7412 12.2752C16.522 12.4217 16.2642 12.4999 16.0005 12.4999C15.6469 12.4999 15.3077 12.3594 15.0577 12.1094C14.8076 11.8593 14.6671 11.5202 14.6671 11.1665ZM10.6671 20.4999C10.9309 20.4999 11.1886 20.5781 11.4079 20.7246C11.6272 20.8711 11.7981 21.0793 11.899 21.323C11.9999 21.5666 12.0263 21.8347 11.9749 22.0933C11.9234 22.352 11.7964 22.5896 11.61 22.776C11.4235 22.9625 11.1859 23.0895 10.9273 23.1409C10.6686 23.1924 10.4005 23.166 10.1569 23.0651C9.91327 22.9641 9.70503 22.7932 9.55852 22.574C9.41201 22.3547 9.33382 22.0969 9.33382 21.8332C9.33382 21.4796 9.47429 21.1405 9.72434 20.8904C9.97439 20.6404 10.3135 20.4999 10.6671 20.4999Z" fill="white"/>
</svg>
