<svg width="80" height="80" viewBox="0 0 80 80" fill="none" xmlns="http://www.w3.org/2000/svg">
<rect width="80" height="80" rx="40" fill="black" fill-opacity="0.15" style="mix-blend-mode:overlay"/>
<path d="M28 48.0001C28.0004 48.7481 28.2105 49.4811 28.6065 50.1157C29.0026 50.7503 29.5686 51.2612 30.2404 51.5902C30.9122 51.9193 31.6628 52.0534 32.4069 51.9773C33.1511 51.9012 33.859 51.6179 34.4503 51.1597C35.0415 50.7015 35.4925 50.0866 35.7518 49.385C36.0112 48.6833 36.0686 47.923 35.9176 47.1904C35.7666 46.4577 35.4131 45.7821 34.8974 45.2403C34.3816 44.6984 33.7243 44.3121 33 44.1251V43.0001C33 42.4696 33.2107 41.9609 33.5858 41.5858C33.9608 41.2108 34.4696 41.0001 35 41.0001H45C45.5304 41.0001 46.0391 41.2108 46.4142 41.5858C46.7893 41.9609 47 42.4696 47 43.0001V44.1251C46.0573 44.3685 45.2358 44.9473 44.6894 45.7531C44.143 46.5588 43.9092 47.5362 44.0319 48.5021C44.1545 49.4679 44.6253 50.3558 45.3558 50.9994C46.0863 51.643 47.0264 51.998 48 51.998C48.9736 51.998 49.9137 51.643 50.6442 50.9994C51.3747 50.3558 51.8454 49.4679 51.9681 48.5021C52.0908 47.5362 51.857 46.5588 51.3106 45.7531C50.7642 44.9473 49.9426 44.3685 49 44.1251V43.0001C49 41.9392 48.5786 40.9218 47.8284 40.1716C47.0783 39.4215 46.0609 39.0001 45 39.0001H41V35.8751C41.9426 35.6317 42.7642 35.0528 43.3106 34.2471C43.857 33.4413 44.0908 32.4639 43.9681 31.4981C43.8454 30.5322 43.3747 29.6443 42.6442 29.0007C41.9137 28.3571 40.9736 28.0021 40 28.0021C39.0264 28.0021 38.0863 28.3571 37.3558 29.0007C36.6253 29.6443 36.1545 30.5322 36.0319 31.4981C35.9092 32.4639 36.143 33.4413 36.6894 34.2471C37.2358 35.0528 38.0573 35.6317 39 35.8751V39.0001H35C33.9391 39.0001 32.9217 39.4215 32.1716 40.1716C31.4214 40.9218 31 41.9392 31 43.0001V44.1251C30.1417 44.348 29.3815 44.8494 28.8387 45.5506C28.2958 46.2518 28.0008 47.1133 28 48.0001ZM50 48.0001C50 48.3956 49.8827 48.7823 49.6629 49.1112C49.4432 49.4401 49.1308 49.6964 48.7654 49.8478C48.3999 49.9992 47.9978 50.0388 47.6098 49.9616C47.2218 49.8845 46.8655 49.694 46.5858 49.4143C46.3061 49.1346 46.1156 48.7782 46.0384 48.3902C45.9612 48.0023 46.0009 47.6001 46.1522 47.2347C46.3036 46.8692 46.56 46.5569 46.8889 46.3371C47.2177 46.1174 47.6044 46.0001 48 46.0001C48.5304 46.0001 49.0391 46.2108 49.4142 46.5858C49.7893 46.9609 50 47.4696 50 48.0001ZM38 32.0001C38 31.6045 38.1173 31.2178 38.3371 30.8889C38.5568 30.56 38.8692 30.3037 39.2346 30.1523C39.6001 30.0009 40.0022 29.9613 40.3902 30.0385C40.7781 30.1157 41.1345 30.3061 41.4142 30.5858C41.6939 30.8656 41.8844 31.2219 41.9616 31.6099C42.0387 31.9978 41.9991 32.4 41.8477 32.7654C41.6964 33.1309 41.44 33.4432 41.1111 33.663C40.7822 33.8828 40.3956 34.0001 40 34.0001C39.4696 34.0001 38.9608 33.7893 38.5858 33.4143C38.2107 33.0392 38 32.5305 38 32.0001ZM32 46.0001C32.3956 46.0001 32.7822 46.1174 33.1111 46.3371C33.44 46.5569 33.6964 46.8692 33.8477 47.2347C33.9991 47.6001 34.0387 48.0023 33.9616 48.3902C33.8844 48.7782 33.6939 49.1346 33.4142 49.4143C33.1345 49.694 32.7781 49.8845 32.3902 49.9616C32.0022 50.0388 31.6001 49.9992 31.2346 49.8478C30.8692 49.6964 30.5568 49.4401 30.3371 49.1112C30.1173 48.7823 30 48.3956 30 48.0001C30 47.4696 30.2107 46.9609 30.5858 46.5858C30.9608 46.2108 31.4696 46.0001 32 46.0001Z" fill="white"/>
</svg>
