<svg width="80" height="80" viewBox="0 0 80 80" fill="none" xmlns="http://www.w3.org/2000/svg">
<rect width="80" height="80" rx="40" fill="black" fill-opacity="0.15" style="mix-blend-mode:overlay"/>
<g clip-path="url(#clip0_195_1208)">
<path d="M33 35C33 31.134 36.134 28 40 28V26C35.0294 26 31 30.0294 31 35H33ZM33 43V35H31V43H33ZM31 43V49H33V43H31ZM31 49V51H33V49H31ZM31 51C31 52.6569 32.3431 54 34 54V52C33.4477 52 33 51.5523 33 51H31ZM34 54H46V52H34V54ZM46 54C47.6569 54 49 52.6569 49 51H47C47 51.5523 46.5523 52 46 52V54ZM49 51V49H47V51H49ZM49 49V48H47V49H49ZM49 48V46H47V48H49ZM49 46C49 42.6863 46.3137 40 43 40V42C45.2091 42 47 43.7909 47 46H49ZM43 40H40V42H43V40ZM35 37C35 39.7614 37.2386 42 40 42V40C38.3431 40 37 38.6569 37 37H35ZM35 35V37H37V35H35ZM40 30C37.2386 30 35 32.2386 35 35H37C37 33.3431 38.3431 32 40 32V30ZM45 35C45 32.2386 42.7614 30 40 30V32C41.6569 32 43 33.3431 43 35H45ZM43 35C43 36.6569 44.3431 38 46 38V36C45.4477 36 45 35.5523 45 35H43ZM46 38C47.6569 38 49 36.6569 49 35H47C47 35.5523 46.5523 36 46 36V38ZM40 28C43.866 28 47 31.134 47 35H49C49 30.0294 44.9706 26 40 26V28Z" fill="white"/>
</g>
<defs>
<clipPath id="clip0_195_1208">
<rect width="32" height="32" fill="white" transform="translate(24 24)"/>
</clipPath>
</defs>
</svg>
