<svg width="32" height="33" viewBox="0 0 32 33" fill="none" xmlns="http://www.w3.org/2000/svg">
<rect y="0.5" width="32" height="32" rx="16" fill="#406591"/>
<g clip-path="url(#clip0_133_1287)">
<path d="M10.666 22.4997H9.99935V23.1663H10.666V22.4997ZM10.6667 22.4997H11.3333V21.833H10.6667V22.4997ZM15.9997 17.1667H15.333V17.8333H15.9997V17.1667ZM15.9997 17.1663H16.6663V16.4997H15.9997V17.1663ZM18.666 13.1665H17.9993V13.8332H18.666V13.1665ZM18.6667 13.1665H19.3333V12.4998H18.6667V13.1665ZM21.3325 13.1182L20.6658 13.1241L20.6659 13.1331L20.6662 13.142L21.3325 13.1182ZM11.3327 13.1663C11.3327 10.589 13.422 8.49967 15.9993 8.49967V7.16634C12.6856 7.16634 9.99935 9.85264 9.99935 13.1663H11.3327ZM11.3327 22.4997V13.1663H9.99935V22.4997H11.3327ZM10.6667 21.833H10.666V23.1663H10.6667V21.833ZM10 22.4997V23.8333H11.3333V22.4997H10ZM10 23.8333C10 24.9379 10.8954 25.8333 12 25.8333V24.5C11.6318 24.5 11.3333 24.2015 11.3333 23.8333H10ZM12 25.8333H20V24.5H12V25.8333ZM20 25.8333C21.1046 25.8333 22 24.9379 22 23.8333H20.6667C20.6667 24.2015 20.3682 24.5 20 24.5V25.8333ZM22 23.8333V20.5H20.6667V23.8333H22ZM22 20.5C22 18.2909 20.2091 16.5 18 16.5V17.8333C19.4728 17.8333 20.6667 19.0272 20.6667 20.5H22ZM18 16.5H15.9997V17.8333H18V16.5ZM15.333 17.1663V17.1667H16.6663V17.1663H15.333ZM15.9993 17.833H15.9997V16.4997H15.9993V17.833ZM12.666 14.4997C12.666 16.3406 14.1584 17.833 15.9993 17.833V16.4997C14.8948 16.4997 13.9993 15.6042 13.9993 14.4997H12.666ZM12.666 13.1663V14.4997H13.9993V13.1663H12.666ZM15.9993 9.83301C14.1584 9.83301 12.666 11.3254 12.666 13.1663H13.9993C13.9993 12.0618 14.8948 11.1663 15.9993 11.1663V9.83301ZM19.3327 13.1663C19.3327 11.3254 17.8403 9.83301 15.9993 9.83301V11.1663C17.1039 11.1663 17.9993 12.0618 17.9993 13.1663H19.3327ZM19.3327 13.1665V13.1663H17.9993V13.1665H19.3327ZM18.6667 12.4998H18.666V13.8332H18.6667V12.4998ZM18 13.1665C18 13.1665 18 13.1665 18 13.1665C18 13.1665 18 13.1665 18 13.1665C18 13.1665 18 13.1665 18 13.1665C18 13.1665 18 13.1665 18 13.1665C18 13.1665 18 13.1665 18 13.1665C18 13.1665 18 13.1665 18 13.1665C18 13.1665 18 13.1665 18 13.1665C18 13.1665 18 13.1665 18 13.1665C18 13.1665 18 13.1665 18 13.1665C18 13.1665 18 13.1665 18 13.1665C18 13.1665 18 13.1665 18 13.1665C18 13.1665 18 13.1665 18 13.1665C18 13.1665 18 13.1665 18 13.1665C18 13.1665 18 13.1665 18 13.1665C18 13.1665 18 13.1665 18 13.1665C18 13.1665 18 13.1665 18 13.1665C18 13.1665 18 13.1665 18 13.1665C18 13.1665 18 13.1665 18 13.1665C18 13.1665 18 13.1665 18 13.1665C18 13.1665 18 13.1665 18 13.1665C18 13.1665 18 13.1665 18 13.1665C18 13.1665 18 13.1665 18 13.1665V13.1665C18 13.1665 18 13.1665 18 13.1665V13.1665C18 13.1665 18 13.1665 18 13.1665V13.1665C18 13.1665 18 13.1665 18 13.1665V13.1665C18 13.1665 18 13.1665 18 13.1665V13.1665C18 13.1665 18 13.1665 18 13.1665V13.1665C18 13.1665 18 13.1665 18 13.1665V13.1665C18 13.1665 18 13.1665 18 13.1665V13.1665C18 13.1665 18 13.1665 18 13.1665V13.1665C18 13.1665 18 13.1665 18 13.1665V13.1665C18 13.1665 18 13.1665 18 13.1665V13.1665C18 13.1665 18 13.1665 18 13.1665V13.1665C18 13.1665 18 13.1665 18 13.1665V13.1665C18 13.1665 18 13.1665 18 13.1665V13.1665C18 13.1665 18 13.1665 18 13.1665V13.1665C18 13.1665 18 13.1665 18 13.1665V13.1665C18 13.1665 18 13.1665 18 13.1665V13.1665C18 13.1665 18 13.1665 18 13.1665V13.1665C18 13.1665 18 13.1665 18 13.1665V13.1665C18 13.1665 18 13.1665 18 13.1665V13.1665C18 13.1665 18 13.1665 18 13.1665V13.1665C18 13.1665 18 13.1665 18 13.1665V13.1665C18 13.1665 18 13.1665 18 13.1665V13.1665C18 13.1665 18 13.1665 18 13.1665V13.1665C18 13.1665 18 13.1665 18 13.1665V13.1665C18 13.1665 18 13.1665 18 13.1665V13.1665C18 13.1665 18 13.1665 18 13.1665V13.1665C18 13.1665 18 13.1665 18 13.1665V13.1665C18 13.1665 18 13.1665 18 13.1665C18 13.1665 18 13.1665 18 13.1665C18 13.1665 18 13.1665 18 13.1665C18 13.1665 18 13.1665 18 13.1665C18 13.1665 18 13.1665 18 13.1665C18 13.1665 18 13.1665 18 13.1665C18 13.1665 18 13.1665 18 13.1665C18 13.1665 18 13.1665 18 13.1665C18 13.1665 18 13.1665 18 13.1665C18 13.1665 18 13.1665 18 13.1665C18 13.1665 18 13.1665 18 13.1665C18 13.1665 18 13.1665 18 13.1665C18 13.1665 18 13.1665 18 13.1665C18 13.1665 18 13.1665 18 13.1665C18 13.1665 18 13.1665 18 13.1665C18 13.1665 18 13.1665 18 13.1665C18 13.1665 18 13.1665 18 13.1665C18 13.1665 18 13.1665 18 13.1665C18 13.1665 18 13.1665 18 13.1666C18 13.1666 18 13.1666 18 13.1666C18 13.1666 18 13.1666 18 13.1666C18 13.1666 18 13.1666 18 13.1666V13.1666C18 13.1666 18 13.1666 18 13.1666V13.1666C18 13.1666 18 13.1666 18 13.1666V13.1666C18 13.1666 18 13.1666 18 13.1666V13.1666C18 13.1666 18 13.1666 18 13.1666V13.1666C18 13.1666 18 13.1666 18 13.1666V13.1666C18 13.1666 18 13.1666 18 13.1666V13.1666C18 13.1666 18 13.1666 18 13.1666V13.1666C18 13.1666 18 13.1666 18 13.1666V13.1666C18 13.1666 18 13.1666 18 13.1666V13.1666C18 13.1666 18 13.1666 18 13.1666V13.1666C18 13.1666 18 13.1666 18 13.1666V13.1666C18 13.1666 18 13.1666 18 13.1666V13.1666C18 13.1666 18 13.1666 18 13.1666V13.1666C18 13.1666 18 13.1666 18 13.1666V13.1666C18 13.1666 18 13.1666 18 13.1666V13.1666C18 13.1666 18 13.1666 18 13.1666V13.1666C18 13.1666 18 13.1666 18 13.1666V13.1666C18 13.1666 18 13.1666 18 13.1666V13.1666C18 13.1666 18 13.1666 18 13.1666C18 13.1666 18 13.1666 18 13.1666C18 13.1666 18 13.1666 18 13.1666C18 13.1666 18 13.1666 18 13.1666C18 13.1666 18 13.1666 18 13.1666C18 13.1666 18 13.1666 18 13.1666C18 13.1666 18 13.1666 18 13.1666C18 13.1666 18 13.1666 18 13.1666C18 13.1666 18 13.1666 18 13.1666C18 13.1666 18 13.1666 18 13.1666C18 13.1666 18 13.1666 18 13.1666C18 13.1666 18 13.1666 18 13.1666C18 13.1666 18 13.1666 18 13.1666C18 13.1666 18 13.1666 18 13.1666C18 13.1666 18 13.1666 18 13.1666C18 13.1666 18 13.1666 18 13.1666C18 13.1666 18 13.1666 18 13.1666C18 13.1666 18 13.1666 18 13.1666V13.1666C18 13.1666 18 13.1666 18 13.1666V13.1666C18 13.1666 18 13.1666 18 13.1666V13.1666C18 13.1666 18 13.1666 18 13.1666V13.1666C18 13.1666 18 13.1666 18 13.1666V13.1666C18 13.1666 18 13.1666 18 13.1666V13.1666C18 13.1666 18 13.1666 18 13.1666V13.1666C18 13.1666 18 13.1666 18 13.1666V13.1666C18 13.1666 18 13.1666 18 13.1666V13.1666C18 13.1666 18 13.1666 18 13.1666V13.1666C18 13.1666 18 13.1666 18 13.1666V13.1666C18 13.1666 18 13.1666 18 13.1666V13.1666C18 13.1666 18 13.1666 18 13.1666V13.1666C18 13.1666 18 13.1666 18 13.1666V13.1666C18 13.1666 18 13.1666 18 13.1666V13.1666C18 13.1666 18 13.1666 18 13.1666V13.1666C18 13.1666 18 13.1666 18 13.1666V13.1666C18 13.1666 18 13.1666 18 13.1666V13.1666C18 13.1666 18 13.1666 18 13.1666C18 13.1666 18 13.1666 18 13.1666C18 13.1666 18 13.1666 18 13.1666C18 13.1666 18 13.1666 18 13.1666C18 13.1666 18 13.1666 18 13.1666C18 13.1666 18 13.1666 18 13.1666C18 13.1666 18 13.1666 18 13.1666C18 13.1666 18 13.1666 18 13.1666C18 13.1666 18 13.1666 18 13.1666C18 13.1666 18 13.1666 18 13.1666C18 13.1666 18 13.1666 18 13.1666C18 13.1666 18 13.1666 18 13.1666C18 13.1666 18 13.1666 18 13.1666C18 13.1666 18 13.1666 18 13.1666C18 13.1666 18 13.1666 18 13.1666C18 13.1666 18 13.1666 18 13.1666C18 13.1666 18 13.1666 18 13.1666C18 13.1666 18 13.1666 18 13.1666V13.1666C18 13.1666 18 13.1666 18 13.1666V13.1666C18 13.1666 18 13.1666 18 13.1666V13.1666C18 13.1666 18 13.1666 18 13.1666V13.1666C18 13.1666 18 13.1666 18 13.1666V13.1666C18 13.1666 18 13.1666 18 13.1666V13.1666C18 13.1666 18 13.1666 18 13.1666V13.1666C18 13.1666 18 13.1666 18 13.1666V13.1666C18 13.1666 18 13.1666 18 13.1666V13.1666C18 13.1666 18 13.1666 18 13.1666V13.1666C18 13.1666 18 13.1666 18 13.1666V13.1666C18 13.1666 18 13.1666 18 13.1666V13.1666C18 13.1666 18 13.1666 18 13.1666V13.1666C18 13.1666 18 13.1666 18 13.1666V13.1666C18 13.1666 18 13.1666 18 13.1666V13.1666C18 13.1666 18 13.1666 18 13.1666V13.1666C18 13.1666 18 13.1666 18 13.1666V13.1666C18 13.1666 18 13.1666 18 13.1666V13.1666C18 13.1666 18 13.1666 18 13.1666V13.1666C18 13.1666 18 13.1666 18 13.1666C18 13.1666 18 13.1666 18 13.1666C18 13.1666 18 13.1666 18 13.1666C18 13.1666 18 13.1666 18 13.1666C18 13.1666 18 13.1666 18 13.1666C18 13.1666 18 13.1666 18 13.1666C18 13.1666 18 13.1666 18 13.1666C18 13.1666 18 13.1666 18 13.1666C18 13.1666 18 13.1666 18 13.1666C18 13.1666 18 13.1666 18 13.1666C18 13.1666 18 13.1666 18 13.1666C18 13.1666 18 13.1666 18 13.1666C18 13.1666 18 13.1666 18 13.1666C18 13.1666 18 13.1666 18 13.1666C18 13.1666 18 13.1666 18 13.1666C18 13.1666 18 13.1666 18 13.1666C18 13.1666 18 13.1666 18 13.1666C18 13.1666 18 13.1666 18 13.1666C18 13.1666 18 13.1666 18 13.1666C18 13.1666 18 13.1666 18 13.1666C18 13.1666 18 13.1666 18 13.1666C18 13.1666 18 13.1666 18 13.1666V13.1666C18 13.1666 18 13.1666 18 13.1666V13.1666C18 13.1666 18 13.1666 18 13.1666V13.1666C18 13.1666 18 13.1666 18 13.1666V13.1666C18 13.1666 18 13.1666 18 13.1666V13.1666C18 13.1666 18 13.1666 18 13.1666V13.1666C18 13.1666 18 13.1666 18 13.1666V13.1666C18 13.1666 18 13.1666 18 13.1666V13.1666C18 13.1666 18 13.1666 18 13.1666V13.1666C18 13.1666 18 13.1666 18 13.1666V13.1666C18 13.1666 18 13.1666 18 13.1666V13.1666C18 13.1666 18 13.1666 18 13.1666V13.1666C18 13.1666 18 13.1666 18 13.1666V13.1666C18 13.1666 18 13.1666 18 13.1666V13.1666C18 13.1666 18 13.1666 18 13.1666V13.1666C18 13.1666 18 13.1666 18 13.1666V13.1666C18 13.1666 18 13.1666 18 13.1666V13.1666C18 13.1666 18 13.1666 18 13.1666V13.1666C18 13.1666 18 13.1666 18 13.1666V13.1666C18 13.1666 18 13.1666 18 13.1666V13.1666C18 13.1666 18 13.1666 18 13.1667V13.1667C18 13.1667 18 13.1667 18 13.1667V13.1667C18 13.1667 18 13.1667 18 13.1667V13.1667C18 13.1667 18 13.1667 18 13.1667V13.1667C18 13.1667 18 13.1667 18 13.1667V13.1667C18 13.1667 18 13.1667 18 13.1667V13.1667C18 13.1667 18 13.1667 18 13.1667V13.1667C18 13.1667 18 13.1667 18 13.1667V13.1667C18 13.1667 18 13.1667 18 13.1667C18 13.1667 18 13.1667 18 13.1667C18 13.1667 18 13.1667 18 13.1667C18 13.1667 18 13.1667 18 13.1667C18 13.1667 18 13.1667 18 13.1667C18 13.1667 18 13.1667 18 13.1667C18 13.1667 18 13.1667 18 13.1667C18 13.1667 18 13.1667 18 13.1667C18 13.1667 18 13.1667 18 13.1667C18 13.1667 18 13.1667 18 13.1667C18 13.1667 18 13.1667 18 13.1667C18 13.1667 18 13.1667 18 13.1667C18 13.1667 18 13.1667 18 13.1667C18 13.1667 18 13.1667 18 13.1667C18 13.1667 18 13.1667 18 13.1667C18 13.1667 18 13.1667 18 13.1667C18 13.1667 18 13.1667 18 13.1667C18 13.1667 18 13.1667 18 13.1667C18 13.1667 18 13.1667 18 13.1667C18 13.1667 18 13.1667 18 13.1667C18 13.1667 18 13.1667 18 13.1667C18 13.1667 18 13.1667 18 13.1667H19.3333C19.3333 13.1667 19.3333 13.1667 19.3333 13.1667C19.3333 13.1667 19.3333 13.1667 19.3333 13.1667C19.3333 13.1667 19.3333 13.1667 19.3333 13.1667C19.3333 13.1667 19.3333 13.1667 19.3333 13.1667C19.3333 13.1667 19.3333 13.1667 19.3333 13.1667C19.3333 13.1667 19.3333 13.1667 19.3333 13.1667C19.3333 13.1667 19.3333 13.1667 19.3333 13.1667C19.3333 13.1667 19.3333 13.1667 19.3333 13.1667C19.3333 13.1667 19.3333 13.1667 19.3333 13.1667C19.3333 13.1667 19.3333 13.1667 19.3333 13.1667C19.3333 13.1667 19.3333 13.1667 19.3333 13.1667C19.3333 13.1667 19.3333 13.1667 19.3333 13.1667C19.3333 13.1667 19.3333 13.1667 19.3333 13.1667C19.3333 13.1667 19.3333 13.1667 19.3333 13.1667C19.3333 13.1667 19.3333 13.1667 19.3333 13.1667C19.3333 13.1667 19.3333 13.1667 19.3333 13.1667C19.3333 13.1667 19.3333 13.1667 19.3333 13.1667C19.3333 13.1667 19.3333 13.1667 19.3333 13.1667C19.3333 13.1667 19.3333 13.1667 19.3333 13.1667C19.3333 13.1667 19.3333 13.1667 19.3333 13.1667C19.3333 13.1667 19.3333 13.1667 19.3333 13.1667C19.3333 13.1667 19.3333 13.1667 19.3333 13.1667V13.1667C19.3333 13.1667 19.3333 13.1667 19.3333 13.1667V13.1667C19.3333 13.1667 19.3333 13.1667 19.3333 13.1667V13.1667C19.3333 13.1667 19.3333 13.1667 19.3333 13.1667V13.1667C19.3333 13.1667 19.3333 13.1667 19.3333 13.1667V13.1667C19.3333 13.1667 19.3333 13.1667 19.3333 13.1667V13.1667C19.3333 13.1667 19.3333 13.1667 19.3333 13.1667V13.1667C19.3333 13.1667 19.3333 13.1667 19.3333 13.1667V13.1667C19.3333 13.1666 19.3333 13.1666 19.3333 13.1666V13.1666C19.3333 13.1666 19.3333 13.1666 19.3333 13.1666V13.1666C19.3333 13.1666 19.3333 13.1666 19.3333 13.1666V13.1666C19.3333 13.1666 19.3333 13.1666 19.3333 13.1666V13.1666C19.3333 13.1666 19.3333 13.1666 19.3333 13.1666V13.1666C19.3333 13.1666 19.3333 13.1666 19.3333 13.1666V13.1666C19.3333 13.1666 19.3333 13.1666 19.3333 13.1666V13.1666C19.3333 13.1666 19.3333 13.1666 19.3333 13.1666V13.1666C19.3333 13.1666 19.3333 13.1666 19.3333 13.1666V13.1666C19.3333 13.1666 19.3333 13.1666 19.3333 13.1666V13.1666C19.3333 13.1666 19.3333 13.1666 19.3333 13.1666V13.1666C19.3333 13.1666 19.3333 13.1666 19.3333 13.1666V13.1666C19.3333 13.1666 19.3333 13.1666 19.3333 13.1666V13.1666C19.3333 13.1666 19.3333 13.1666 19.3333 13.1666V13.1666C19.3333 13.1666 19.3333 13.1666 19.3333 13.1666V13.1666C19.3333 13.1666 19.3333 13.1666 19.3333 13.1666V13.1666C19.3333 13.1666 19.3333 13.1666 19.3333 13.1666V13.1666C19.3333 13.1666 19.3333 13.1666 19.3333 13.1666V13.1666C19.3333 13.1666 19.3333 13.1666 19.3333 13.1666V13.1666C19.3333 13.1666 19.3333 13.1666 19.3333 13.1666V13.1666C19.3333 13.1666 19.3333 13.1666 19.3333 13.1666C19.3333 13.1666 19.3333 13.1666 19.3333 13.1666C19.3333 13.1666 19.3333 13.1666 19.3333 13.1666C19.3333 13.1666 19.3333 13.1666 19.3333 13.1666C19.3333 13.1666 19.3333 13.1666 19.3333 13.1666C19.3333 13.1666 19.3333 13.1666 19.3333 13.1666C19.3333 13.1666 19.3333 13.1666 19.3333 13.1666C19.3333 13.1666 19.3333 13.1666 19.3333 13.1666C19.3333 13.1666 19.3333 13.1666 19.3333 13.1666C19.3333 13.1666 19.3333 13.1666 19.3333 13.1666C19.3333 13.1666 19.3333 13.1666 19.3333 13.1666C19.3333 13.1666 19.3333 13.1666 19.3333 13.1666C19.3333 13.1666 19.3333 13.1666 19.3333 13.1666C19.3333 13.1666 19.3333 13.1666 19.3333 13.1666C19.3333 13.1666 19.3333 13.1666 19.3333 13.1666C19.3333 13.1666 19.3333 13.1666 19.3333 13.1666C19.3333 13.1666 19.3333 13.1666 19.3333 13.1666C19.3333 13.1666 19.3333 13.1666 19.3333 13.1666C19.3333 13.1666 19.3333 13.1666 19.3333 13.1666C19.3333 13.1666 19.3333 13.1666 19.3333 13.1666C19.3333 13.1666 19.3333 13.1666 19.3333 13.1666C19.3333 13.1666 19.3333 13.1666 19.3333 13.1666V13.1666C19.3333 13.1666 19.3333 13.1666 19.3333 13.1666V13.1666C19.3333 13.1666 19.3333 13.1666 19.3333 13.1666V13.1666C19.3333 13.1666 19.3333 13.1666 19.3333 13.1666V13.1666C19.3333 13.1666 19.3333 13.1666 19.3333 13.1666V13.1666C19.3333 13.1666 19.3333 13.1666 19.3333 13.1666V13.1666C19.3333 13.1666 19.3333 13.1666 19.3333 13.1666V13.1666C19.3333 13.1666 19.3333 13.1666 19.3333 13.1666V13.1666C19.3333 13.1666 19.3333 13.1666 19.3333 13.1666V13.1666C19.3333 13.1666 19.3333 13.1666 19.3333 13.1666V13.1666C19.3333 13.1666 19.3333 13.1666 19.3333 13.1666V13.1666C19.3333 13.1666 19.3333 13.1666 19.3333 13.1666V13.1666C19.3333 13.1666 19.3333 13.1666 19.3333 13.1666V13.1666C19.3333 13.1666 19.3333 13.1666 19.3333 13.1666V13.1666C19.3333 13.1666 19.3333 13.1666 19.3333 13.1666V13.1666C19.3333 13.1666 19.3333 13.1666 19.3333 13.1666V13.1666C19.3333 13.1666 19.3333 13.1666 19.3333 13.1666V13.1666C19.3333 13.1666 19.3333 13.1666 19.3333 13.1666V13.1666C19.3333 13.1666 19.3333 13.1666 19.3333 13.1666V13.1666C19.3333 13.1666 19.3333 13.1666 19.3333 13.1666C19.3333 13.1666 19.3333 13.1666 19.3333 13.1666C19.3333 13.1666 19.3333 13.1666 19.3333 13.1666C19.3333 13.1666 19.3333 13.1666 19.3333 13.1666C19.3333 13.1666 19.3333 13.1666 19.3333 13.1666C19.3333 13.1666 19.3333 13.1666 19.3333 13.1666C19.3333 13.1666 19.3333 13.1666 19.3333 13.1666C19.3333 13.1666 19.3333 13.1666 19.3333 13.1666C19.3333 13.1666 19.3333 13.1666 19.3333 13.1666C19.3333 13.1666 19.3333 13.1666 19.3333 13.1666C19.3333 13.1666 19.3333 13.1666 19.3333 13.1666C19.3333 13.1666 19.3333 13.1666 19.3333 13.1666C19.3333 13.1666 19.3333 13.1666 19.3333 13.1666C19.3333 13.1666 19.3333 13.1666 19.3333 13.1666C19.3333 13.1666 19.3333 13.1666 19.3333 13.1666C19.3333 13.1666 19.3333 13.1666 19.3333 13.1666C19.3333 13.1666 19.3333 13.1666 19.3333 13.1666C19.3333 13.1666 19.3333 13.1666 19.3333 13.1666V13.1666C19.3333 13.1666 19.3333 13.1666 19.3333 13.1666V13.1666C19.3333 13.1666 19.3333 13.1666 19.3333 13.1666V13.1666C19.3333 13.1666 19.3333 13.1666 19.3333 13.1666V13.1666C19.3333 13.1666 19.3333 13.1666 19.3333 13.1666V13.1666C19.3333 13.1666 19.3333 13.1666 19.3333 13.1666V13.1666C19.3333 13.1666 19.3333 13.1666 19.3333 13.1666V13.1666C19.3333 13.1666 19.3333 13.1666 19.3333 13.1666V13.1666C19.3333 13.1666 19.3333 13.1666 19.3333 13.1666V13.1666C19.3333 13.1666 19.3333 13.1666 19.3333 13.1666V13.1666C19.3333 13.1666 19.3333 13.1666 19.3333 13.1666V13.1666C19.3333 13.1666 19.3333 13.1666 19.3333 13.1666V13.1666C19.3333 13.1666 19.3333 13.1666 19.3333 13.1666V13.1666C19.3333 13.1666 19.3333 13.1666 19.3333 13.1666V13.1666C19.3333 13.1666 19.3333 13.1666 19.3333 13.1666V13.1666C19.3333 13.1666 19.3333 13.1666 19.3333 13.1666V13.1666C19.3333 13.1666 19.3333 13.1666 19.3333 13.1666V13.1666C19.3333 13.1666 19.3333 13.1666 19.3333 13.1666V13.1666C19.3333 13.1666 19.3333 13.1666 19.3333 13.1666C19.3333 13.1666 19.3333 13.1666 19.3333 13.1666C19.3333 13.1666 19.3333 13.1666 19.3333 13.1666C19.3333 13.1666 19.3333 13.1666 19.3333 13.1666C19.3333 13.1666 19.3333 13.1666 19.3333 13.1666C19.3333 13.1666 19.3333 13.1666 19.3333 13.1666C19.3333 13.1666 19.3333 13.1666 19.3333 13.1666C19.3333 13.1666 19.3333 13.1666 19.3333 13.1666C19.3333 13.1666 19.3333 13.1666 19.3333 13.1666C19.3333 13.1666 19.3333 13.1666 19.3333 13.1666C19.3333 13.1666 19.3333 13.1666 19.3333 13.1666C19.3333 13.1666 19.3333 13.1666 19.3333 13.1666C19.3333 13.1666 19.3333 13.1666 19.3333 13.1666C19.3333 13.1666 19.3333 13.1666 19.3333 13.1666C19.3333 13.1666 19.3333 13.1666 19.3333 13.1666C19.3333 13.1666 19.3333 13.1666 19.3333 13.1666C19.3333 13.1666 19.3333 13.1666 19.3333 13.1666C19.3333 13.1666 19.3333 13.1666 19.3333 13.1666V13.1666C19.3333 13.1666 19.3333 13.1666 19.3333 13.1666V13.1666C19.3333 13.1666 19.3333 13.1666 19.3333 13.1666V13.1666C19.3333 13.1666 19.3333 13.1666 19.3333 13.1666V13.1666C19.3333 13.1666 19.3333 13.1666 19.3333 13.1666V13.1666C19.3333 13.1666 19.3333 13.1666 19.3333 13.1666V13.1666C19.3333 13.1666 19.3333 13.1666 19.3333 13.1666V13.1666C19.3333 13.1666 19.3333 13.1666 19.3333 13.1666V13.1666C19.3333 13.1666 19.3333 13.1666 19.3333 13.1666V13.1666C19.3333 13.1666 19.3333 13.1666 19.3333 13.1666V13.1666C19.3333 13.1666 19.3333 13.1666 19.3333 13.1666V13.1666C19.3333 13.1666 19.3333 13.1666 19.3333 13.1666V13.1666C19.3333 13.1666 19.3333 13.1666 19.3333 13.1666V13.1666C19.3333 13.1666 19.3333 13.1666 19.3333 13.1666V13.1666C19.3333 13.1666 19.3333 13.1666 19.3333 13.1666V13.1666C19.3333 13.1666 19.3333 13.1666 19.3333 13.1666V13.1666C19.3333 13.1666 19.3333 13.1666 19.3333 13.1666V13.1666C19.3333 13.1666 19.3333 13.1666 19.3333 13.1666V13.1666C19.3333 13.1666 19.3333 13.1666 19.3333 13.1666V13.1666C19.3333 13.1666 19.3333 13.1666 19.3333 13.1666C19.3333 13.1666 19.3333 13.1666 19.3333 13.1666C19.3333 13.1666 19.3333 13.1666 19.3333 13.1666C19.3333 13.1665 19.3333 13.1665 19.3333 13.1665C19.3333 13.1665 19.3333 13.1665 19.3333 13.1665C19.3333 13.1665 19.3333 13.1665 19.3333 13.1665C19.3333 13.1665 19.3333 13.1665 19.3333 13.1665C19.3333 13.1665 19.3333 13.1665 19.3333 13.1665C19.3333 13.1665 19.3333 13.1665 19.3333 13.1665C19.3333 13.1665 19.3333 13.1665 19.3333 13.1665C19.3333 13.1665 19.3333 13.1665 19.3333 13.1665C19.3333 13.1665 19.3333 13.1665 19.3333 13.1665C19.3333 13.1665 19.3333 13.1665 19.3333 13.1665C19.3333 13.1665 19.3333 13.1665 19.3333 13.1665C19.3333 13.1665 19.3333 13.1665 19.3333 13.1665C19.3333 13.1665 19.3333 13.1665 19.3333 13.1665C19.3333 13.1665 19.3333 13.1665 19.3333 13.1665C19.3333 13.1665 19.3333 13.1665 19.3333 13.1665C19.3333 13.1665 19.3333 13.1665 19.3333 13.1665C19.3333 13.1665 19.3333 13.1665 19.3333 13.1665C19.3333 13.1665 19.3333 13.1665 19.3333 13.1665C19.3333 13.1665 19.3333 13.1665 19.3333 13.1665V13.1665C19.3333 13.1665 19.3333 13.1665 19.3333 13.1665V13.1665C19.3333 13.1665 19.3333 13.1665 19.3333 13.1665V13.1665C19.3333 13.1665 19.3333 13.1665 19.3333 13.1665V13.1665C19.3333 13.1665 19.3333 13.1665 19.3333 13.1665V13.1665C19.3333 13.1665 19.3333 13.1665 19.3333 13.1665V13.1665C19.3333 13.1665 19.3333 13.1665 19.3333 13.1665V13.1665C19.3333 13.1665 19.3333 13.1665 19.3333 13.1665V13.1665C19.3333 13.1665 19.3333 13.1665 19.3333 13.1665V13.1665C19.3333 13.1665 19.3333 13.1665 19.3333 13.1665V13.1665C19.3333 13.1665 19.3333 13.1665 19.3333 13.1665V13.1665C19.3333 13.1665 19.3333 13.1665 19.3333 13.1665V13.1665C19.3333 13.1665 19.3333 13.1665 19.3333 13.1665V13.1665C19.3333 13.1665 19.3333 13.1665 19.3333 13.1665V13.1665C19.3333 13.1665 19.3333 13.1665 19.3333 13.1665V13.1665C19.3333 13.1665 19.3333 13.1665 19.3333 13.1665V13.1665C19.3333 13.1665 19.3333 13.1665 19.3333 13.1665V13.1665C19.3333 13.1665 19.3333 13.1665 19.3333 13.1665V13.1665C19.3333 13.1665 19.3333 13.1665 19.3333 13.1665V13.1665C19.3333 13.1665 19.3333 13.1665 19.3333 13.1665V13.1665C19.3333 13.1665 19.3333 13.1665 19.3333 13.1665V13.1665C19.3333 13.1665 19.3333 13.1665 19.3333 13.1665V13.1665C19.3333 13.1665 19.3333 13.1665 19.3333 13.1665V13.1665C19.3333 13.1665 19.3333 13.1665 19.3333 13.1665V13.1665C19.3333 13.1665 19.3333 13.1665 19.3333 13.1665V13.1665C19.3333 13.1665 19.3333 13.1665 19.3333 13.1665V13.1665C19.3333 13.1665 19.3333 13.1665 19.3333 13.1665V13.1665C19.3333 13.1665 19.3333 13.1665 19.3333 13.1665V13.1665C19.3333 13.1665 19.3333 13.1665 19.3333 13.1665C19.3333 13.1665 19.3333 13.1665 19.3333 13.1665C19.3333 13.1665 19.3333 13.1665 19.3333 13.1665C19.3333 13.1665 19.3333 13.1665 19.3333 13.1665C19.3333 13.1665 19.3333 13.1665 19.3333 13.1665C19.3333 13.1665 19.3333 13.1665 19.3333 13.1665C19.3333 13.1665 19.3333 13.1665 19.3333 13.1665C19.3333 13.1665 19.3333 13.1665 19.3333 13.1665C19.3333 13.1665 19.3333 13.1665 19.3333 13.1665C19.3333 13.1665 19.3333 13.1665 19.3333 13.1665C19.3333 13.1665 19.3333 13.1665 19.3333 13.1665C19.3333 13.1665 19.3333 13.1665 19.3333 13.1665C19.3333 13.1665 19.3333 13.1665 19.3333 13.1665C19.3333 13.1665 19.3333 13.1665 19.3333 13.1665C19.3333 13.1665 19.3333 13.1665 19.3333 13.1665C19.3333 13.1665 19.3333 13.1665 19.3333 13.1665C19.3333 13.1665 19.3333 13.1665 19.3333 13.1665C19.3333 13.1665 19.3333 13.1665 19.3333 13.1665C19.3333 13.1665 19.3333 13.1665 19.3333 13.1665C19.3333 13.1665 19.3333 13.1665 19.3333 13.1665C19.3333 13.1665 19.3333 13.1665 19.3333 13.1665C19.3333 13.1665 19.3333 13.1665 19.3333 13.1665H18ZM18 13.1667C18 14.2712 18.8954 15.1667 20 15.1667V13.8333C19.6318 13.8333 19.3333 13.5349 19.3333 13.1667H18ZM20 15.1667C21.1046 15.1667 22 14.2712 22 13.1667H20.6667C20.6667 13.5349 20.3682 13.8333 20 13.8333V15.1667ZM22 13.1667C22 13.1425 21.9996 13.1184 21.9987 13.0944L20.6662 13.142C20.6665 13.1502 20.6667 13.1584 20.6667 13.1667H22ZM15.9993 8.49967C18.5626 8.49967 20.6432 10.5663 20.6658 13.1241L21.9991 13.1123C21.97 9.82341 19.295 7.16634 15.9993 7.16634V8.49967Z" fill="white"/>
</g>
<defs>
<clipPath id="clip0_133_1287">
<rect width="21.3333" height="21.3333" fill="white" transform="translate(5.3335 5.8335)"/>
</clipPath>
</defs>
</svg>
