<svg width="72" height="72" viewBox="0 0 72 72" fill="none" xmlns="http://www.w3.org/2000/svg">
<rect width="72" height="72" rx="36" fill="#765AA5" fill-opacity="0.25"/>
<g clip-path="url(#clip0_1131_244)">
<path d="M51 47.25V48.5C51 49.8261 50.4732 51.0979 49.5355 52.0355C48.5979 52.9732 47.3261 53.5 46 53.5H37.25" stroke="#765AA5" stroke-width="2" stroke-linecap="round" stroke-linejoin="round"/>
<path d="M51 36H46C45.337 36 44.7011 36.2634 44.2322 36.7322C43.7634 37.2011 43.5 37.837 43.5 38.5V44.75C43.5 45.413 43.7634 46.0489 44.2322 46.5178C44.7011 46.9866 45.337 47.25 46 47.25H51V36ZM51 36C51 34.0302 50.612 32.0796 49.8582 30.2597C49.1044 28.4399 47.9995 26.7863 46.6066 25.3934C45.2137 24.0005 43.5601 22.8956 41.7403 22.1418C39.9204 21.388 37.9698 21 36 21C34.0302 21 32.0796 21.388 30.2597 22.1418C28.4399 22.8956 26.7863 24.0005 25.3934 25.3934C24.0005 26.7863 22.8956 28.4399 22.1418 30.2597C21.388 32.0796 21 34.0302 21 36M21 36V44.75C21 45.413 21.2634 46.0489 21.7322 46.5178C22.2011 46.9866 22.837 47.25 23.5 47.25H26C26.663 47.25 27.2989 46.9866 27.7678 46.5178C28.2366 46.0489 28.5 45.413 28.5 44.75V38.5C28.5 37.837 28.2366 37.2011 27.7678 36.7322C27.2989 36.2634 26.663 36 26 36H21Z" stroke="#765AA5" stroke-width="2" stroke-linecap="round" stroke-linejoin="round"/>
</g>
<defs>
<clipPath id="clip0_1131_244">
<rect width="40" height="40" fill="white" transform="translate(16 16)"/>
</clipPath>
</defs>
</svg>
