<svg width="72" height="72" viewBox="0 0 72 72" fill="none" xmlns="http://www.w3.org/2000/svg">
<rect width="72" height="72" rx="36" fill="#765AA5" fill-opacity="0.25"/>
<g clip-path="url(#clip0_1131_233)">
<path d="M44.125 36C45.1605 36 46 35.1605 46 34.125C46 33.0895 45.1605 32.25 44.125 32.25C43.0895 32.25 42.25 33.0895 42.25 34.125C42.25 35.1605 43.0895 36 44.125 36Z" fill="#765AA5"/>
<path d="M33.5 27.25H39.75" stroke="#765AA5" stroke-width="2" stroke-linecap="round" stroke-linejoin="round"/>
<path d="M49.75 22.25H38.5" stroke="#765AA5" stroke-width="2" stroke-linecap="round" stroke-linejoin="round"/>
<path d="M17.25 38.5C17.25 37.5054 17.6451 36.5516 18.3483 35.8483C19.0516 35.1451 20.0054 34.75 21 34.75" stroke="#765AA5" stroke-width="2" stroke-linecap="round" stroke-linejoin="round"/>
<path d="M50.4281 31H51C51.663 31 52.2989 31.2634 52.7678 31.7322C53.2366 32.2011 53.5 32.837 53.5 33.5V38.5C53.5 39.163 53.2366 39.7989 52.7678 40.2678C52.2989 40.7366 51.663 41 51 41H49.75L46.9219 48.9203C46.8351 49.1633 46.6753 49.3735 46.4644 49.522C46.2535 49.6705 46.0017 49.7502 45.7438 49.75H43.7563C43.4983 49.7502 43.2465 49.6705 43.0356 49.522C42.8247 49.3735 42.6649 49.1633 42.5781 48.9203L41.9828 47.25H31.2672L30.6719 48.9203C30.5851 49.1633 30.4253 49.3735 30.2144 49.522C30.0035 49.6705 29.7517 49.7502 29.4938 49.75H27.5063C27.2483 49.7502 26.9965 49.6705 26.7856 49.522C26.5747 49.3735 26.4149 49.1633 26.3281 48.9203L24.2813 43.1875C22.1677 40.8862 20.9965 37.8745 21 34.75C21 31.4348 22.317 28.2554 24.6612 25.9112C27.0054 23.567 30.1848 22.25 33.5 22.25H38.5C40.9392 22.2493 43.3253 22.9623 45.3643 24.301C47.4033 25.6398 49.006 27.5459 49.975 29.7844C50.1464 30.1817 50.2977 30.5874 50.4281 31Z" stroke="#765AA5" stroke-width="2" stroke-linecap="round" stroke-linejoin="round"/>
</g>
<defs>
<clipPath id="clip0_1131_233">
<rect width="40" height="40" fill="white" transform="translate(16 16)"/>
</clipPath>
</defs>
</svg>
