<svg width="72" height="72" viewBox="0 0 72 72" fill="none" xmlns="http://www.w3.org/2000/svg">
<rect width="72" height="72" rx="36" fill="#765AA5" fill-opacity="0.25"/>
<g clip-path="url(#clip0_1131_298)">
<path d="M42.377 20.2403L44.752 25.7763C44.8107 25.9116 44.9051 26.0285 45.0251 26.1144C45.1451 26.2003 45.2862 26.2519 45.4333 26.2638L51.5067 26.781C51.6655 26.7912 51.8177 26.8485 51.9437 26.9457C52.0698 27.0428 52.164 27.1754 52.2143 27.3263C52.2647 27.4773 52.2688 27.6399 52.2263 27.7932C52.1837 27.9466 52.0964 28.0838 51.9754 28.1872L47.3614 32.12C47.251 32.2142 47.1685 32.3368 47.1228 32.4745C47.077 32.6122 47.0699 32.7598 47.102 32.9013L48.4833 38.7544C48.5176 38.9097 48.5055 39.0717 48.4486 39.2202C48.3917 39.3687 48.2925 39.4973 48.1633 39.59C48.034 39.6826 47.8804 39.7353 47.7214 39.7415C47.5625 39.7477 47.4053 39.7071 47.2692 39.6247L42.0473 36.52C41.92 36.4448 41.7749 36.4052 41.627 36.4052C41.4792 36.4052 41.334 36.4448 41.2067 36.52L35.9848 39.6247C35.8488 39.7071 35.6915 39.7477 35.5326 39.7415C35.3737 39.7353 35.22 39.6826 35.0908 39.59C34.9615 39.4973 34.8623 39.3687 34.8054 39.2202C34.7485 39.0717 34.7365 38.9097 34.7708 38.7544L36.1583 32.9091C36.1904 32.7676 36.1832 32.62 36.1375 32.4823C36.0918 32.3446 36.0093 32.222 35.8989 32.1278L31.2848 28.1872C31.1639 28.0838 31.0766 27.9466 31.034 27.7932C30.9915 27.6399 30.9956 27.4773 31.0459 27.3263C31.0963 27.1754 31.1905 27.0428 31.3165 26.9457C31.4426 26.8485 31.5948 26.7912 31.7536 26.781L37.8286 26.2669C37.9746 26.2534 38.1143 26.2006 38.2328 26.1143C38.3514 26.0279 38.4444 25.9111 38.502 25.7763L40.877 20.2403C40.9408 20.0946 41.0458 19.9705 41.179 19.8835C41.3122 19.7964 41.4679 19.75 41.627 19.75C41.7862 19.75 41.9418 19.7964 42.075 19.8835C42.2082 19.9705 42.3132 20.0946 42.377 20.2403Z" stroke="#765AA5" stroke-width="2" stroke-linecap="round" stroke-linejoin="round"/>
<path d="M28.5 34.75L19.75 43.5" stroke="#765AA5" stroke-width="2" stroke-linecap="round" stroke-linejoin="round"/>
<path d="M31 43.5L22.25 52.25" stroke="#765AA5" stroke-width="2" stroke-linecap="round" stroke-linejoin="round"/>
<path d="M42.25 43.5L33.5 52.25" stroke="#765AA5" stroke-width="2" stroke-linecap="round" stroke-linejoin="round"/>
</g>
<defs>
<clipPath id="clip0_1131_298">
<rect width="40" height="40" fill="white" transform="translate(16 16)"/>
</clipPath>
</defs>
</svg>
