<svg width="72" height="72" viewBox="0 0 72 72" fill="none" xmlns="http://www.w3.org/2000/svg">
<rect width="72" height="72" rx="36" fill="#765AA5" fill-opacity="0.25"/>
<g clip-path="url(#clip0_1131_279)">
<path d="M32.8026 49.0044C32.6991 49.2322 32.5296 49.4237 32.3161 49.5542C32.1026 49.6846 31.8548 49.7479 31.6048 49.736C31.3549 49.724 31.1143 49.6373 30.9141 49.4871C30.714 49.3369 30.5636 49.1301 30.4823 48.8934L22.3151 23.8825C22.2482 23.6653 22.2418 23.434 22.2966 23.2135C22.3514 22.9929 22.4652 22.7915 22.6259 22.6308C22.7866 22.4701 22.988 22.3562 23.2086 22.3015C23.4291 22.2467 23.6604 22.2531 23.8776 22.32L48.8932 30.4825C49.1299 30.5638 49.3367 30.7142 49.4869 30.9143C49.6372 31.1145 49.7238 31.3551 49.7358 31.605C49.7477 31.855 49.6844 32.1027 49.554 32.3163C49.4235 32.5298 49.232 32.6993 49.0042 32.8028L42.0089 35.845C41.822 35.9264 41.658 36.0523 41.5309 36.2117C41.4039 36.3711 41.3178 36.5591 41.28 36.7593C41.2423 36.9596 41.2541 37.1661 41.3144 37.3607C41.3747 37.5554 41.4817 37.7324 41.6261 37.8762L49.387 45.6372C49.6212 45.8716 49.7528 46.1894 49.7528 46.5208C49.7528 46.8522 49.6212 47.17 49.387 47.4044L47.4073 49.3856C47.1729 49.6199 46.8551 49.7515 46.5237 49.7515C46.1923 49.7515 45.8745 49.6199 45.6401 49.3856L37.8761 41.6262C37.7321 41.4819 37.555 41.375 37.3603 41.3148C37.1655 41.2546 36.959 41.243 36.7587 41.2809C36.5584 41.3188 36.3704 41.4051 36.2111 41.5323C36.0519 41.6595 35.9261 41.8237 35.8448 42.0106L32.8026 49.0044Z" stroke="#765AA5" stroke-width="2" stroke-linecap="round" stroke-linejoin="round"/>
<path d="M31 18.5V19.75" stroke="#765AA5" stroke-width="2" stroke-linecap="round" stroke-linejoin="round"/>
<path d="M18.5 31H19.75" stroke="#765AA5" stroke-width="2" stroke-linecap="round" stroke-linejoin="round"/>
<path d="M36 21L37.25 18.5" stroke="#765AA5" stroke-width="2" stroke-linecap="round" stroke-linejoin="round"/>
<path d="M21 36L18.5 37.25" stroke="#765AA5" stroke-width="2" stroke-linecap="round" stroke-linejoin="round"/>
</g>
<defs>
<clipPath id="clip0_1131_279">
<rect width="40" height="40" fill="white" transform="translate(16 16)"/>
</clipPath>
</defs>
</svg>
