<svg width="72" height="72" viewBox="0 0 72 72" fill="none" xmlns="http://www.w3.org/2000/svg">
<rect width="72" height="72" rx="36" fill="#765AA5" fill-opacity="0.25"/>
<g clip-path="url(#clip0_1131_215)">
<path d="M32.25 23.5H24.75C24.0596 23.5 23.5 24.0596 23.5 24.75V32.25C23.5 32.9404 24.0596 33.5 24.75 33.5H32.25C32.9404 33.5 33.5 32.9404 33.5 32.25V24.75C33.5 24.0596 32.9404 23.5 32.25 23.5Z" stroke="#765AA5" stroke-width="2" stroke-linecap="round" stroke-linejoin="round"/>
<path d="M47.25 23.5H39.75C39.0596 23.5 38.5 24.0596 38.5 24.75V32.25C38.5 32.9404 39.0596 33.5 39.75 33.5H47.25C47.9404 33.5 48.5 32.9404 48.5 32.25V24.75C48.5 24.0596 47.9404 23.5 47.25 23.5Z" stroke="#765AA5" stroke-width="2" stroke-linecap="round" stroke-linejoin="round"/>
<path d="M32.25 38.5H24.75C24.0596 38.5 23.5 39.0596 23.5 39.75V47.25C23.5 47.9404 24.0596 48.5 24.75 48.5H32.25C32.9404 48.5 33.5 47.9404 33.5 47.25V39.75C33.5 39.0596 32.9404 38.5 32.25 38.5Z" stroke="#765AA5" stroke-width="2" stroke-linecap="round" stroke-linejoin="round"/>
<path d="M47.25 38.5H39.75C39.0596 38.5 38.5 39.0596 38.5 39.75V47.25C38.5 47.9404 39.0596 48.5 39.75 48.5H47.25C47.9404 48.5 48.5 47.9404 48.5 47.25V39.75C48.5 39.0596 47.9404 38.5 47.25 38.5Z" stroke="#765AA5" stroke-width="2" stroke-linecap="round" stroke-linejoin="round"/>
</g>
<defs>
<clipPath id="clip0_1131_215">
<rect width="40" height="40" fill="white" transform="translate(16 16)"/>
</clipPath>
</defs>
</svg>
