<svg width="72" height="72" viewBox="0 0 72 72" fill="none" xmlns="http://www.w3.org/2000/svg">
<rect width="72" height="72" rx="36" fill="#765AA5" fill-opacity="0.25"/>
<g clip-path="url(#clip0_1131_225)">
<path d="M28.499 36C28.499 33.5277 29.2321 31.111 30.6056 29.0554C31.9791 26.9998 33.9314 25.3976 36.2154 24.4515C38.4995 23.5054 41.0128 23.2579 43.4376 23.7402C45.8624 24.2225 48.0897 25.413 49.8378 27.1612C51.586 28.9093 52.7765 31.1366 53.2588 33.5614C53.7411 35.9861 53.4936 38.4995 52.5475 40.7835C51.6014 43.0676 49.9992 45.0199 47.9436 46.3934C45.888 47.7669 43.4712 48.5 40.999 48.5H27.249C26.0083 48.4985 24.7821 48.2331 23.6518 47.7215C22.5215 47.2099 21.5129 46.4638 20.693 45.5327C19.873 44.6016 19.2605 43.5067 18.8959 42.3208C18.5314 41.1349 18.4233 39.885 18.5787 38.6541C18.7341 37.4231 19.1495 36.2393 19.7973 35.1812C20.4451 34.1231 21.3106 33.2148 22.3362 32.5167C23.3618 31.8186 24.5242 31.3465 25.7462 31.1319C26.9682 30.9173 28.2218 30.965 29.424 31.2719" stroke="#765AA5" stroke-width="2" stroke-linecap="round" stroke-linejoin="round"/>
<path d="M34.75 37.25L38.5 41L46 33.5" stroke="#765AA5" stroke-width="2" stroke-linecap="round" stroke-linejoin="round"/>
</g>
<defs>
<clipPath id="clip0_1131_225">
<rect width="40" height="40" fill="white" transform="translate(16 16)"/>
</clipPath>
</defs>
</svg>
