<svg id="Layer_1" data-name="Layer 1" xmlns="http://www.w3.org/2000/svg" viewBox="0 0 95.17 29.22"><defs><style>.cls-1{fill:#fff;}</style></defs><title>logomarca</title><path class="cls-1" d="M97.35,34.58a.49.49,0,0,1-.44.3A2.15,2.15,0,0,1,96,34.5V32.83q0-9.07-2.26-9.07c-.47,0-1,.34-1.52,1a10,10,0,0,0-2.07,6.47,11,11,0,0,0,.15,1.52,11.14,11.14,0,0,1,.15,1.52.6.6,0,0,1-.61.57c-.7,0-1-.74-1-1.88V26.79c0-.16,0-.4,0-.71s0-.55,0-.71a8.68,8.68,0,0,0-.09-1,7.09,7.09,0,0,1-.1-1c0-.14.11-.31.34-.51a1,1,0,0,1,.54-.28.85.85,0,0,1,.65.38c0,1.19-.08,1.88-.08,2.08s0,.54,0,.79c.16-.05.38-.35.65-.9a6.5,6.5,0,0,1,.88-1.42,1.94,1.94,0,0,1,1.5-.77,2.94,2.94,0,0,1,1,.25,3.62,3.62,0,0,1,2.11,1.8,13,13,0,0,1,1.07,5.71Z" transform="translate(-2.17 -10.48)"/><polygon class="cls-1" points="0 10.6 10.6 0 14.87 4.26 14.87 1.85 17.59 1.85 17.61 7.01 21.21 10.61 19.27 12.54 10.61 3.89 1.97 12.54 0 10.6"/><path class="cls-1" d="M87.42,24a6.77,6.77,0,0,1-.23,1.48A7.38,7.38,0,0,0,87,27v6a6.86,6.86,0,0,0,.27,1.64.32.32,0,0,1-.3.22c-.89,0-1.34-.42-1.34-1.28v-10a1.44,1.44,0,0,1,.69-.19,1.4,1.4,0,0,1,.68.19C87.27,23.69,87.42,23.85,87.42,24Zm.52-4.1q0,.93-.87.93a1.44,1.44,0,0,1-1-.38,1.15,1.15,0,0,1-.43-.88.81.81,0,0,1,.92-.93,1.37,1.37,0,0,1,1,.36A1.17,1.17,0,0,1,87.94,19.93Z" transform="translate(-2.17 -10.48)"/><polygon class="cls-1" points="17.6 12.54 14.16 9.1 14.16 14.78 7.05 14.78 7.06 9.1 3.61 12.54 3.61 21.55 1.94 21.55 1.94 24.4 8.72 24.4 8.72 21.55 7.05 21.55 7.05 17.52 14.16 17.52 14.16 21.55 12.49 21.55 12.49 24.4 19.27 24.4 19.27 21.55 17.61 21.55 17.6 12.54"/><path class="cls-1" d="M21.87,29a5.85,5.85,0,0,1,.45-2.29,5.69,5.69,0,0,1,1.23-1.87,5.77,5.77,0,0,1,1.89-1.27,6.39,6.39,0,0,1,4.81,0,5.77,5.77,0,0,1,1.89,1.27,5.85,5.85,0,0,1,1.23,1.87A6,6,0,0,1,33.81,29a6.23,6.23,0,0,1-.43,2.3,5.69,5.69,0,0,1-1.22,1.89,5.62,5.62,0,0,1-1.88,1.27,6.59,6.59,0,0,1-4.89,0,5.53,5.53,0,0,1-1.88-1.27,5.74,5.74,0,0,1-1.21-1.87A6.34,6.34,0,0,1,21.87,29Zm3.24,0a3,3,0,0,0,.22,1.18,2.74,2.74,0,0,0,.59.92,2.7,2.7,0,0,0,3,.62,2.53,2.53,0,0,0,.85-.6,2.91,2.91,0,0,0,.57-.93A3.23,3.23,0,0,0,30.54,29a3.34,3.34,0,0,0-.21-1.21,2.76,2.76,0,0,0-.57-.92,2.62,2.62,0,0,0-.85-.58,2.9,2.9,0,0,0-1.07-.19,2.85,2.85,0,0,0-1.06.19,2.78,2.78,0,0,0-.86.58,2.65,2.65,0,0,0-.59.92A3.14,3.14,0,0,0,25.11,29Z" transform="translate(-2.17 -10.48)"/><path class="cls-1" d="M41.36,26.52a1.36,1.36,0,0,0-.49-.41,3.27,3.27,0,0,0-.77-.28,4.77,4.77,0,0,0-1-.1l-.48,0a1.72,1.72,0,0,0-.47.14,1,1,0,0,0-.36.25.59.59,0,0,0-.14.42,1,1,0,0,0,0,.25.72.72,0,0,0,.15.22,1,1,0,0,0,.29.19,2,2,0,0,0,.48.15l2,.39a9,9,0,0,1,1.81.53,4.12,4.12,0,0,1,1.17.74,2.43,2.43,0,0,1,.64.94,3.14,3.14,0,0,1,.2,1.12,3.08,3.08,0,0,1-.44,1.65,3.84,3.84,0,0,1-1.16,1.18,5.53,5.53,0,0,1-1.6.71,7,7,0,0,1-2.88.16,5.07,5.07,0,0,1-.87-.2,3.12,3.12,0,0,1-.69-.3,4.51,4.51,0,0,1-.55-.39H34.26V31h3V31a.84.84,0,0,0,.19.53,1.53,1.53,0,0,0,.47.39,2.44,2.44,0,0,0,.66.23,3.33,3.33,0,0,0,.78.08A3,3,0,0,0,40.75,32a.73.73,0,0,0,.43-.64.74.74,0,0,0-.21-.53,1.54,1.54,0,0,0-.75-.34l-2-.44a5.92,5.92,0,0,1-2.89-1.23,2.8,2.8,0,0,1-1-2.21,2.87,2.87,0,0,1,.37-1.45,3.52,3.52,0,0,1,1-1.11,4.9,4.9,0,0,1,1.49-.71A6.3,6.3,0,0,1,39,23.11a8.36,8.36,0,0,1,1.19.08,7.13,7.13,0,0,1,.93.21,3.18,3.18,0,0,1,.72.3,4.18,4.18,0,0,1,.56.37h1.84V27H41.52A.82.82,0,0,0,41.36,26.52Z" transform="translate(-2.17 -10.48)"/><path class="cls-1" d="M45.42,23.39h4.9v.16a6.62,6.62,0,0,1,1.06-.36,4.56,4.56,0,0,1,1.11-.14,5.73,5.73,0,0,1,4.14,1.74,5.82,5.82,0,0,1,1.22,1.87,6,6,0,0,1,.43,2.27,6.25,6.25,0,0,1-.42,2.29,5.83,5.83,0,0,1-1.2,1.86,5.64,5.64,0,0,1-1.83,1.26,5.82,5.82,0,0,1-2.34.46,5.65,5.65,0,0,1-1.33-.14A6.11,6.11,0,0,1,50,34.28v2.46h2.14v3H44.8v-3h1.84V26.36H45.42ZM52.25,26A2.4,2.4,0,0,0,51,26.4a3,3,0,0,0-1,1v3.16a2.71,2.71,0,0,0,.94.9,2.78,2.78,0,0,0,2.39.13,2.53,2.53,0,0,0,.87-.59,3,3,0,0,0,.59-.91A3.06,3.06,0,0,0,55,29a3.36,3.36,0,0,0-.21-1.22,2.5,2.5,0,0,0-.58-.91,2.56,2.56,0,0,0-.86-.58A3,3,0,0,0,52.25,26Z" transform="translate(-2.17 -10.48)"/><path class="cls-1" d="M61.94,29.76l0,.33a2.23,2.23,0,0,0,.4.85,2.79,2.79,0,0,0,.67.61,3,3,0,0,0,.85.37,4,4,0,0,0,1,.12,6.62,6.62,0,0,0,.91-.06,7.34,7.34,0,0,0,.84-.16c.27-.07.54-.14.79-.23l.78-.29,1.18,2.2c-.41.25-.78.46-1.12.63a7.47,7.47,0,0,1-1,.44,7.24,7.24,0,0,1-1.09.25,10.54,10.54,0,0,1-1.35.08,6.51,6.51,0,0,1-2.57-.48,5.42,5.42,0,0,1-1.88-1.29,5.37,5.37,0,0,1-1.17-1.9,6.6,6.6,0,0,1-.4-2.31,6.17,6.17,0,0,1,.42-2.29,5.59,5.59,0,0,1,1.19-1.87A5.79,5.79,0,0,1,62.2,23.5,6.12,6.12,0,0,1,64.58,23a5.85,5.85,0,0,1,2.32.44,4.7,4.7,0,0,1,1.7,1.19,5.25,5.25,0,0,1,1.07,1.8,7,7,0,0,1,.41,2.22c0,.18,0,.36,0,.53s0,.36,0,.54Zm2.55-4a3.35,3.35,0,0,0-1,.14,2.12,2.12,0,0,0-.71.4,2.06,2.06,0,0,0-.46.57,3.91,3.91,0,0,0-.27.67h4.64a3.61,3.61,0,0,0-.22-.68,2,2,0,0,0-.38-.57,2,2,0,0,0-.63-.39A2.84,2.84,0,0,0,64.49,25.72Z" transform="translate(-2.17 -10.48)"/><path class="cls-1" d="M77.29,17.82H82.2V31.7h2.18v3H78.86v-.44a6.31,6.31,0,0,1-1.19.48,4.36,4.36,0,0,1-1.24.17,5.93,5.93,0,0,1-2.37-.46,5.43,5.43,0,0,1-1.85-1.26A5.68,5.68,0,0,1,71,31.28a6.39,6.39,0,0,1,0-4.61,5.48,5.48,0,0,1,3-3.1,6,6,0,0,1,2.34-.46,6.14,6.14,0,0,1,1.32.14,6.51,6.51,0,0,1,1.18.38V20.79H77.29Zm-.68,14.07a2.55,2.55,0,0,0,1.29-.36,3,3,0,0,0,1-.91v-3.3a2.65,2.65,0,0,0-1-.9,2.68,2.68,0,0,0-1.27-.31,2.62,2.62,0,0,0-1,.2,2.71,2.71,0,0,0-.87.58,2.8,2.8,0,0,0-.59.91,3.38,3.38,0,0,0,0,2.4,2.6,2.6,0,0,0,.59.91,2.53,2.53,0,0,0,.87.57A3,3,0,0,0,76.61,31.89Z" transform="translate(-2.17 -10.48)"/></svg>